<svg xmlns="http://www.w3.org/2000/svg" width="267.876" height="58.002" viewBox="0 0 267.876 58.002"><defs><style>.a{fill:#fff;stroke-miterlimit:10;}.a,.b{stroke:#fff;}.b{fill:none;stroke-linecap:round;stroke-linejoin:round;stroke-width:3px;}</style></defs><g transform="translate(1.529 0.738)"><g transform="translate(102.936)"><path class="a" d="M157.655,234.613a37.226,37.226,0,0,1,6.032-.459c3.107,0,5.382.707,6.829,1.98a6.339,6.339,0,0,1,2.131,4.981,6.921,6.921,0,0,1-1.878,5.087c-1.663,1.731-4.372,2.614-7.443,2.614a11.053,11.053,0,0,1-2.529-.212v9.54h-3.143ZM160.8,246.1a10.767,10.767,0,0,0,2.6.247c3.793,0,6.1-1.8,6.1-5.087,0-3.146-2.276-4.663-5.743-4.663a13.384,13.384,0,0,0-2.962.247Z" transform="translate(-155.575 -233.942)"/><path class="a" d="M170.423,234.649a33.451,33.451,0,0,1,6.032-.495c3.361,0,5.528.6,7.044,1.943a5.864,5.864,0,0,1,1.916,4.522,6.272,6.272,0,0,1-4.589,6.078v.106c1.878.636,3,2.332,3.576,4.8a37.522,37.522,0,0,0,1.878,6.537H183.03a30.445,30.445,0,0,1-1.625-5.689c-.722-3.285-2.023-4.522-4.876-4.628h-2.962v10.317h-3.143Zm3.143,10.847h3.215c3.359,0,5.491-1.8,5.491-4.522,0-3.075-2.276-4.416-5.6-4.453a13.1,13.1,0,0,0-3.106.284Z" transform="translate(-149.126 -233.942)"/><path class="a" d="M204.7,246.058c0,8.2-5.093,12.543-11.306,12.543-6.431,0-10.947-4.877-10.947-12.084,0-7.56,4.8-12.508,11.308-12.508C200.4,234.01,204.7,238.993,204.7,246.058Zm-18.893.389c0,5.087,2.818,9.646,7.768,9.646,4.985,0,7.8-4.488,7.8-9.893,0-4.734-2.529-9.681-7.766-9.681C188.406,236.518,185.805,241.218,185.805,246.447Z" transform="translate(-143.053 -234.01)"/><path class="a" d="M199.942,234.274h13.114v2.579h-9.971v7.915H212.3v2.544h-9.213v10.776h-3.143Z" transform="translate(-134.216 -233.885)"/><path class="a" d="M224.238,246.923h-9.466v8.586h10.549v2.579H211.63V234.274h13.15v2.579H214.773v7.526h9.466Z" transform="translate(-128.313 -233.885)"/><path class="a" d="M223.416,254.466a11.323,11.323,0,0,0,5.635,1.554c3.216,0,5.095-1.659,5.095-4.063,0-2.226-1.3-3.5-4.589-4.734-3.973-1.378-6.43-3.391-6.43-6.748,0-3.711,3.143-6.466,7.875-6.466a11.277,11.277,0,0,1,5.384,1.166l-.867,2.508a9.866,9.866,0,0,0-4.624-1.13c-3.325,0-4.589,1.944-4.589,3.57,0,2.226,1.481,3.321,4.842,4.593,4.118,1.554,6.213,3.5,6.213,6.995,0,3.676-2.781,6.855-8.525,6.855a12.806,12.806,0,0,1-6.215-1.519Z" transform="translate(-122.761 -234.01)"/><path class="a" d="M245.436,258.088V247.983l-7.694-13.709h3.576l3.432,6.572c.939,1.8,1.66,3.25,2.419,4.911h.074c.686-1.554,1.517-3.109,2.456-4.911l3.5-6.572h3.576l-8.164,13.673v10.141Z" transform="translate(-115.124 -233.885)"/><path class="a" d="M177.441,269.325c-.181-3.321-.4-7.313-.36-10.28h-.108c-.832,2.791-1.844,5.758-3.07,9.044l-4.3,11.554h-2.384L163.281,268.3c-1.156-3.356-2.131-6.43-2.818-9.256h-.074c-.072,2.968-.253,6.96-.468,10.528l-.65,10.211h-3l1.7-23.812h4.01l4.154,11.517c1.011,2.934,1.842,5.546,2.456,8.021h.108c.614-2.4,1.481-5.018,2.565-8.021l4.336-11.517h4.01l1.517,23.812h-3.072Z" transform="translate(-156.273 -223.645)"/><path class="a" d="M180.317,272.294l-2.529,7.49h-3.253l8.275-23.812H186.6l8.31,23.812h-3.361l-2.6-7.49Zm7.985-2.4-2.384-6.854c-.542-1.554-.9-2.968-1.266-4.345h-.072c-.361,1.413-.759,2.862-1.227,4.31l-2.386,6.889Z" transform="translate(-147.048 -223.645)"/><path class="a" d="M203.058,268.618h-9.467V277.2H204.14v2.579H190.45V255.971H203.6v2.579H193.591v7.525h9.467Z" transform="translate(-139.01 -223.645)"/><path class="a" d="M202.236,276.162a11.317,11.317,0,0,0,5.635,1.556c3.216,0,5.095-1.66,5.095-4.064,0-2.226-1.3-3.5-4.589-4.734-3.972-1.378-6.43-3.391-6.43-6.748,0-3.709,3.144-6.466,7.875-6.466a11.272,11.272,0,0,1,5.384,1.166l-.867,2.51a9.847,9.847,0,0,0-4.624-1.13c-3.325,0-4.589,1.943-4.589,3.568,0,2.226,1.481,3.321,4.842,4.593,4.118,1.554,6.213,3.5,6.213,6.995,0,3.676-2.781,6.855-8.525,6.855a12.806,12.806,0,0,1-6.215-1.519Z" transform="translate(-133.459 -223.77)"/><path class="a" d="M219.646,258.585h-7.405v-2.614h18.027v2.614h-7.441v21.2h-3.18Z" transform="translate(-128.004 -223.645)"/><path class="a" d="M226.017,256.344a33.6,33.6,0,0,1,6.032-.493c3.359,0,5.528.6,7.044,1.942a5.869,5.869,0,0,1,1.916,4.523,6.274,6.274,0,0,1-4.589,6.076v.106c1.88.636,3,2.332,3.578,4.8a37.114,37.114,0,0,0,1.878,6.537h-3.251A30.213,30.213,0,0,1,237,274.152c-.724-3.287-2.024-4.523-4.876-4.629H229.16V279.84h-3.143Zm3.143,10.847h3.216c3.358,0,5.491-1.8,5.491-4.522,0-3.075-2.277-4.416-5.6-4.453a13.18,13.18,0,0,0-3.107.284Z" transform="translate(-121.046 -223.701)"/><path class="a" d="M260.294,267.754c0,8.2-5.095,12.543-11.308,12.543-6.431,0-10.947-4.875-10.947-12.084,0-7.56,4.806-12.508,11.308-12.508C255.994,255.706,260.294,260.689,260.294,267.754Zm-18.893.389c0,5.087,2.818,9.646,7.766,9.646,4.985,0,7.8-4.487,7.8-9.893,0-4.734-2.53-9.68-7.769-9.68C244,258.216,241.4,262.914,241.4,268.143Z" transform="translate(-114.973 -223.77)"/><path class="a" d="M255.515,276.162a11.318,11.318,0,0,0,5.637,1.556c3.215,0,5.093-1.66,5.093-4.064,0-2.226-1.3-3.5-4.589-4.734-3.972-1.378-6.43-3.391-6.43-6.748,0-3.709,3.144-6.466,7.875-6.466a11.279,11.279,0,0,1,5.385,1.166l-.868,2.51a9.847,9.847,0,0,0-4.624-1.13c-3.325,0-4.589,1.943-4.589,3.568,0,2.226,1.483,3.321,4.842,4.593,4.118,1.554,6.213,3.5,6.213,6.995,0,3.676-2.781,6.855-8.525,6.855a12.805,12.805,0,0,1-6.214-1.519Z" transform="translate(-106.548 -223.77)"/></g><g transform="translate(0 0.762)"><path class="b" d="M88.052,255.439,110,236.8a8.149,8.149,0,0,1,5.653-2.268h43.291a11.13,11.13,0,0,1,11.252,11h0a10.882,10.882,0,0,1-3.3,7.781l-19.234,18.812a.3.3,0,0,1-.5-.2v-6.14a9.644,9.644,0,0,0-10.2-9.512l-48.5.127A.558.558,0,0,1,88.052,255.439Z" transform="translate(-87.881 -234.528)"/><path class="b" d="M147.067,258.9v.739c0,1.384-1.147,1.766-2.562,1.766H88.069" transform="translate(-87.787 -223.026)"/><line class="b" x1="41.627" transform="translate(5.722 30.403)"/><g transform="translate(1.592 17.492)"><path class="b" d="M166.608,246.411a11.006,11.006,0,0,1,6.872,10.139h0a10.881,10.881,0,0,1-3.295,7.781l-19.235,18.812a.3.3,0,0,1-.5-.2V276.8a9.641,9.641,0,0,0-10.2-9.511l-48.5.125" transform="translate(-87.523 -246.411)"/><path class="b" d="M151.864,270.192v.739c0,1.384-1.145,1.766-2.56,1.766H88.939" transform="translate(-88.939 -235.187)"/><line class="b" x1="45.554" transform="translate(5.439 29.538)"/></g></g></g></svg>